<svg xmlns:xlink="http://www.w3.org/1999/xlink" xmlns="http://www.w3.org/2000/svg" width="1000.0" height="356.319286486">
  <desc>Created by CircuitLab https://www.circuitlab.com/</desc><g transform="matrix(0.72369945257,0,0,0.72369945257,-1699.97001409,-1247.39869755)">
    <path style="stroke-linecap: round; stroke-miterlimit: 6;" fill="#ffffff" stroke="#000000" d="M50,50C50,36.19374,38.806255,25,25,25C11.193755,25,0,36.19374,0,50C0,63.80632,11.193755,75,25,75C38.806255,75,50,63.80632,50,50" stroke-width="2" stroke-linecap="round" stroke-miterlimit="6" transform="translate(2350,2025)"/>
    <path style="stroke-linecap: round; stroke-miterlimit: 6;" fill="none" stroke="#000000" d="M25,0L25,25" stroke-width="2" stroke-linecap="round" stroke-miterlimit="6" transform="translate(2350,2025)"/>
    <path style="stroke-linecap: round; stroke-miterlimit: 6;" fill="none" stroke="#000000" d="M25,100.00002L25,75" stroke-width="2" stroke-linecap="round" stroke-miterlimit="6" transform="translate(2350,2025)"/>
    <path style="font-size: 15px; font-weight: normal;" fill="#000000" stroke="none" d="M25.84227,33.168L24.157737,33.168L24.157737,40.48806L16.898932,40.48806L16.898932,42.17259L24.157737,42.17259L24.157737,49.49262L25.84227,49.49262L25.84227,42.17259L33.101076,42.17259L33.101076,40.48806L25.84227,40.48806L25.84227,33.168" font-size="15px" font-weight="normal" transform="translate(2350,2025)"/>
    <path style="font-size: 15px; font-weight: normal;" fill="#000000" stroke="none" d="M17.006089,60.39372L17.006089,62.07822L33.055093,62.07822L33.055093,60.39372L17.006089,60.39372" font-size="15px" font-weight="normal" transform="translate(2350,2025)"/>
    <text style="font-family: Arial; font-size: 16px; font-weight: bold; text-anchor: start;" x="0" y="0" text-anchor="start" stroke="none" fill="#000000" transform="translate(2406.25,2075)">
      <tspan dy="-2.3999999999999995">liPoBattery4S</tspan>
      <tspan dy="19.2" x="0">14.8 V</tspan>
    </text>
    <path style="stroke-linecap: round; stroke-miterlimit: 6;" fill="#ffffff" stroke="#000000" d="M12.5,62.5L87.5,62.5L87.5,0L12.5,0L12.5,62.5Z" stroke-width="2" stroke-linecap="round" stroke-miterlimit="6" transform="translate(2500,1900)"/>
    <path style="stroke-linecap: round; stroke-miterlimit: 6;" fill="none" stroke="#000000" d="M0,25L12.5,25" stroke-width="2" stroke-linecap="round" stroke-miterlimit="6" transform="translate(2500,1900)"/>
    <path style="stroke-linecap: round; stroke-miterlimit: 6;" fill="none" stroke="#000000" d="M100,25L87.5,25" stroke-width="2" stroke-linecap="round" stroke-miterlimit="6" transform="translate(2500,1900)"/>
    <path style="stroke-linecap: round; stroke-miterlimit: 6;" fill="none" stroke="#000000" d="M50,75L50,62.5" stroke-width="2" stroke-linecap="round" stroke-miterlimit="6" transform="translate(2500,1900)"/>
    <path fill="#000000" stroke="none" d="M18.007719,29.976625L16.22354,29.976625L18.062407,19.961977L19.853423,19.961977L18.007719,29.976625" transform="translate(2500,1900)"/>
    <path fill="#000000" stroke="none" d="M27.277251,30.113344L26.586821,30.113344L22.895415,23.639711L21.787993,29.976625L20.024321,29.976625L21.863188,19.961977L22.683501,19.961977L26.299712,26.169008L27.386626,19.961977L29.143462,19.961977L27.277251,30.113344" transform="translate(2500,1900)"/>
    <path fill="#000000" stroke="none" d="M56.435454,26.251038C56.435453,24.469144,56.920804,22.947009,57.891508,21.684632C58.866766,20.417714,60.133692,19.784251,61.69229,19.784241C62.89085,19.784251,63.813701,20.103261,64.460844,20.741272C65.107971,21.374745,65.431538,22.293039,65.431548,23.496155C65.431538,25.469467,64.934794,27.071353,63.941313,28.301819C62.947816,29.532288,61.587466,30.147522,59.860258,30.147522C58.802964,30.147522,57.966702,29.792054,57.351469,29.081116C56.740791,28.365623,56.435453,27.422265,56.435454,26.251038M58.281157,26.066468C58.281154,26.836653,58.433824,27.449608,58.739165,27.905335C59.0445,28.361066,59.491114,28.58893,60.079008,28.588929C61.163639,28.58893,62.020408,28.1013,62.649321,27.126038C63.27822,26.150781,63.592673,24.986395,63.59268,23.632874C63.592673,22.101632,62.918194,21.336008,61.569243,21.335999C60.621321,21.336008,59.835189,21.837309,59.210844,22.839905C58.59105,23.842516,58.281154,24.918035,58.281157,26.066468" transform="translate(2500,1900)"/>
    <path fill="#000000" stroke="none" d="M73.921782,26.893616C73.730368,27.923566,73.251852,28.723371,72.486235,29.29303C71.720604,29.862693,70.772688,30.147522,69.642485,30.147522C68.699123,30.147522,67.928941,29.921937,67.331938,29.470765C66.739489,29.015036,66.443265,28.38841,66.443266,27.590882C66.443265,27.349349,66.468331,27.091861,66.518462,26.818421L67.776274,19.961976L69.608305,19.961976L68.329985,26.784241C68.307196,26.907291,68.295803,27.037174,68.295805,27.17389C68.295803,27.625064,68.4348,27.973697,68.712798,28.219788C68.990789,28.465883,69.369044,28.58893,69.847563,28.588929C70.458235,28.58893,70.966373,28.422589,71.371977,28.089905C71.77757,27.757225,72.035057,27.290103,72.144438,26.688538L73.395415,19.961976L75.200102,19.961976L73.921782,26.893616" transform="translate(2500,1900)"/>
    <path fill="#000000" stroke="none" d="M84.380766,21.520569L81.222563,21.520569L79.677641,29.976624L77.87979,29.976624L79.424712,21.520569L76.239165,21.520569L76.526274,19.961976L84.674712,19.961976L84.380766,21.520569" transform="translate(2500,1900)"/>
    <path fill="#000000" stroke="none" d="M44.199707,58.215976C43.169752,58.936029,41.909662,59.296054,40.419433,59.296054C39.270993,59.296054,38.336749,58.929193,37.616699,58.195468C36.901203,57.457189,36.543456,56.522945,36.543457,55.392734C36.543456,53.410318,37.088052,51.840333,38.177246,50.682773C39.270993,49.520673,40.758947,48.939619,42.641113,48.939609C43.661939,48.939619,44.420727,49.167484,44.91748,49.623203L44.384277,51.106601C43.714347,50.701011,43.046705,50.498211,42.381347,50.498203C41.178217,50.498211,40.212072,50.940268,39.48291,51.824375C38.75374,52.703938,38.389157,53.806802,38.38916,55.132968C38.389157,55.953284,38.614743,56.593583,39.065918,57.053867C39.517086,57.509598,40.134598,57.737462,40.918457,57.737461C41.570144,57.737462,42.139805,57.557449,42.627441,57.197422L42.989746,55.215L41.60205,55.215L41.875488,53.724765L45.026855,53.724765L44.199707,58.215976" transform="translate(2500,1900)"/>
    <path fill="#000000" stroke="none" d="M53.038574,59.261875L52.348144,59.261875L48.656738,52.788242L47.549316,59.125156L45.785644,59.125156L47.624511,49.110508L48.444824,49.110508L52.061035,55.317539L53.147949,49.110508L54.904785,49.110508L53.038574,59.261875" transform="translate(2500,1900)"/>
    <path fill="#000000" stroke="none" d="M57.38623,59.125156L54.966308,59.125156L56.791504,49.131015C57.456865,49.012536,58.081214,48.953291,58.66455,48.953281C60.191238,48.953291,61.371575,49.301924,62.205566,49.999179C63.039542,50.696453,63.456534,51.705893,63.456543,53.0275C63.456534,54.882322,62.905102,56.36344,61.802246,57.470859C60.699375,58.573724,59.227371,59.125156,57.38623,59.125156M58.274902,50.573398L57.058105,57.532383C57.258623,57.550613,57.440915,57.559728,57.60498,57.559726C58.82633,57.559728,59.797032,57.129064,60.51709,56.267734C61.237135,55.40641,61.597161,54.301268,61.597168,52.952304C61.597161,52.21403,61.348789,51.621583,60.85205,51.174961C60.3553,50.728354,59.71728,50.505047,58.937988,50.505039C58.719234,50.505047,58.498206,50.527834,58.274902,50.573398" transform="translate(2500,1900)"/>
    <text style="font-family: Arial; font-size: 16px; font-weight: bold; text-anchor: middle;" x="0" y="0" text-anchor="middle" stroke="none" fill="#000000" transform="translate(2550,1875.8)">
      <tspan dy="-2.3999999999999995">voltageRegulator</tspan>
      <tspan dy="19.2" x="0">7812</tspan>
    </text>
    <path style="stroke-linecap: round;" fill="none" stroke="#000000" d="M 2375 1925 L 2375 2025" stroke-width="2" stroke-linecap="round" class="cl_wire"/>
    <path style="stroke-linecap: round;" fill="none" stroke="#000000" d="M 2375 2125 L 2550 2125" stroke-width="2" stroke-linecap="round" class="cl_wire"/>
    <path style="stroke-linecap: round;" fill="none" stroke="#000000" d="M 2975 1925 L 3025 1925" stroke-width="2" stroke-linecap="round" class="cl_wire"/>
    <path style="stroke-linecap: round;" fill="none" stroke="#000000" d="M 3025 1925 L 3025 2125" stroke-width="2" stroke-linecap="round" class="cl_wire"/>
    <path style="stroke-linecap: round;" fill="none" stroke="#000000" d="M 2550 2125 L 3025 2125" stroke-width="2" stroke-linecap="round" class="cl_wire"/>
    <path style="stroke-linecap: round;" fill="none" stroke="#000000" d="M 2825 1750 L 3500 1750" stroke-width="2" stroke-linecap="round" class="cl_wire"/>
    <path style="stroke-linecap: round;" fill="none" stroke="#000000" d="M 2825 1750 L 2825 1868 A 7 7 0 1 1 2825 1882 L 2825 1925" stroke-width="2" stroke-linecap="round" class="cl_wire"/>
    <path style="stroke-linecap: round;" fill="none" stroke="#000000" d="M 2625 1875 L 2625 1925" stroke-width="2" stroke-linecap="round" class="cl_wire"/>
    <path style="stroke-linecap: round; stroke-miterlimit: 6;" fill="none" stroke="#000000" d="M25,21.87499L25,0" stroke-width="2" stroke-linecap="round" stroke-miterlimit="6" transform="translate(3250,1900)"/>
    <path style="stroke-linecap: round; stroke-miterlimit: 6;" fill="none" stroke="#000000" d="M25,78.12502L25,100" stroke-width="2" stroke-linecap="round" stroke-miterlimit="6" transform="translate(3250,1900)"/>
    <path style="stroke-linecap: round; stroke-miterlimit: 6;" fill="none" stroke="#000000" d="M25,21.87499L14.062504,26.56249L35.937495,35.93748L14.062504,45.31248L35.937495,54.68752L14.062504,64.06252L35.937495,73.43752L25,78.12502" stroke-width="2" stroke-linecap="round" stroke-miterlimit="6" transform="translate(3250,1900)"/>
    <text style="font-family: Arial; font-size: 16px; font-weight: bold; text-anchor: start;" x="0" y="0" text-anchor="start" stroke="none" fill="#000000" transform="translate(3293.75,1950)">
      <tspan dy="-2.3999999999999995">dcMotor</tspan>
      <tspan dy="19.2" x="0">4.8 Ω</tspan>
    </text>
    <path style="stroke-linecap: round;" fill="none" stroke="#000000" d="M 2600 1925 L 2700 1925" stroke-width="2" stroke-linecap="round" class="cl_wire"/>
    <path style="stroke-linecap: round;" fill="none" stroke="#000000" d="M 2625 1875 L 2875 1875" stroke-width="2" stroke-linecap="round" class="cl_wire"/>
    <path style="stroke-linecap: round; stroke-miterlimit: 6;" fill="none" stroke="#000000" d="M25,21.87499L25,0" stroke-width="2" stroke-linecap="round" stroke-miterlimit="6" transform="translate(3600,1925)"/>
    <path style="stroke-linecap: round; stroke-miterlimit: 6;" fill="none" stroke="#000000" d="M25,78.12502L25,100" stroke-width="2" stroke-linecap="round" stroke-miterlimit="6" transform="translate(3600,1925)"/>
    <path style="stroke-linecap: round; stroke-miterlimit: 6;" fill="none" stroke="#000000" d="M25,21.87499L14.062504,26.56249L35.937495,35.93748L14.062504,45.31248L35.937495,54.68752L14.062504,64.06252L35.937495,73.43752L25,78.12502" stroke-width="2" stroke-linecap="round" stroke-miterlimit="6" transform="translate(3600,1925)"/>
    <text style="font-family: Arial; font-size: 16px; font-weight: bold; text-anchor: start;" x="0" y="0" text-anchor="start" stroke="none" fill="#000000" transform="translate(3643.75,1975)">
      <tspan dy="-2.3999999999999995">outputLoad</tspan>
      <tspan dy="19.2" x="0">4 Ω</tspan>
    </text>
    <path style="stroke-linecap: round; stroke-miterlimit: 6;" fill="none" stroke="#000000" d="M25,20L25,0" stroke-width="2" stroke-linecap="round" stroke-miterlimit="6" transform="translate(2350,2175)"/>
    <path style="stroke-linecap: round; stroke-linejoin: round; stroke-miterlimit: 6;" fill="#ffffff" stroke="#000000" d="M5,20L25,40L45,20Z" stroke-width="2" stroke-linecap="round" stroke-linejoin="round" stroke-miterlimit="6" transform="translate(2350,2175)"/>
    <path style="stroke-linecap: round;" fill="none" stroke="#000000" d="M 2375 2125 L 2375 2175" stroke-width="2" stroke-linecap="round" class="cl_wire"/>
    <path style="stroke-linecap: round;" fill="none" stroke="#000000" d="M 3625 1750 L 3625 1925" stroke-width="2" stroke-linecap="round" class="cl_wire"/>
    <path style="stroke-linecap: round;" fill="none" stroke="#000000" d="M 3575 1750 L 3625 1750" stroke-width="2" stroke-linecap="round" class="cl_wire"/>
    <path style="stroke-linecap: round;" fill="none" stroke="#000000" d="M 2550 1975 L 2550 2125" stroke-width="2" stroke-linecap="round" class="cl_wire"/>
    <path style="stroke-linecap: round;" fill="none" stroke="#000000" d="M 2375 1925 L 2500 1925" stroke-width="2" stroke-linecap="round" class="cl_wire"/>
    <path style="stroke-linecap: round;" fill="none" stroke="#000000" d="M 2775 1925 L 2875 1925" stroke-width="2" stroke-linecap="round" class="cl_wire"/>
    <path style="stroke-linecap: round; stroke-miterlimit: 6;" fill="#ffffff" stroke="#000000" d="M6.25,93.75L162.49997,93.75L162.49997,6.25L6.25,6.25L6.25,93.75Z" stroke-width="2" stroke-linecap="round" stroke-miterlimit="6" transform="matrix(0,-1,-1,0,2975,1950)"/>
    <path style="stroke-linecap: round; stroke-miterlimit: 6;" fill="none" stroke="#000000" d="M25,64.06252C40.624994,67.18752,40.624994,79.68762,25,82.81252" stroke-width="2" stroke-linecap="round" stroke-miterlimit="6" transform="matrix(0,-1,-1,0,2975,1950)"/>
    <path style="stroke-linecap: round; stroke-miterlimit: 6;" fill="none" stroke="#000000" d="M25,64.06252C9.3749996,60.93752,9.3749996,70.31252,25,67.18752" stroke-width="2" stroke-linecap="round" stroke-miterlimit="6" transform="matrix(0,-1,-1,0,2975,1950)"/>
    <path style="stroke-linecap: round; stroke-miterlimit: 6;" fill="none" stroke="#000000" d="M25,17.18751C40.624994,20.31251,40.624994,32.81251,25,35.93751" stroke-width="2" stroke-linecap="round" stroke-miterlimit="6" transform="matrix(0,-1,-1,0,2975,1950)"/>
    <path style="stroke-linecap: round; stroke-miterlimit: 6;" fill="none" stroke="#000000" d="M25,32.81251C40.624994,35.93751,40.624994,48.43752,25,51.56252" stroke-width="2" stroke-linecap="round" stroke-miterlimit="6" transform="matrix(0,-1,-1,0,2975,1950)"/>
    <path style="stroke-linecap: round; stroke-miterlimit: 6;" fill="none" stroke="#000000" d="M25,48.43752C40.624994,51.56252,40.624994,64.06252,25,67.18752" stroke-width="2" stroke-linecap="round" stroke-miterlimit="6" transform="matrix(0,-1,-1,0,2975,1950)"/>
    <path style="stroke-linecap: round; stroke-miterlimit: 6;" fill="none" stroke="#000000" d="M25,32.81251C9.3749996,29.68751,9.3749996,39.06251,25,35.93751" stroke-width="2" stroke-linecap="round" stroke-miterlimit="6" transform="matrix(0,-1,-1,0,2975,1950)"/>
    <path style="stroke-linecap: round; stroke-miterlimit: 6;" fill="none" stroke="#000000" d="M25,48.43752C9.3749996,45.31251,9.3749996,54.68752,25,51.56252" stroke-width="2" stroke-linecap="round" stroke-miterlimit="6" transform="matrix(0,-1,-1,0,2975,1950)"/>
    <path style="stroke-linecap: round; stroke-miterlimit: 6;" fill="none" stroke="#000000" d="M25,100L25,82.81252" stroke-width="2" stroke-linecap="round" stroke-miterlimit="6" transform="matrix(0,-1,-1,0,2975,1950)"/>
    <path style="stroke-linecap: round; stroke-miterlimit: 6;" fill="none" stroke="#000000" d="M25,0L25,17.18751" stroke-width="2" stroke-linecap="round" stroke-miterlimit="6" transform="matrix(0,-1,-1,0,2975,1950)"/>
    <path style="stroke-linecap: round; stroke-miterlimit: 6;" fill="none" stroke="#000000" d="M76.562489,22.65626L99.999986,81.25012" stroke-width="3" stroke-linecap="round" stroke-miterlimit="6" transform="matrix(0,-1,-1,0,2975,1950)"/>
    <path style="stroke-linecap: round; stroke-miterlimit: 6;" fill="none" stroke="#000000" d="M104.2154,52.35832C96.112486,59.40212,85.736446,63.28122,75,63.28122" stroke-width="1" stroke-linecap="round" stroke-miterlimit="6" transform="matrix(0,-1,-1,0,2975,1950)"/>
    <path style="stroke-linecap: round; stroke-miterlimit: 6;" fill="none" stroke="#000000" d="M75,23.43751C77.588739,23.43751,79.687488,21.33959,79.687488,18.75001C79.687488,16.16043,77.588739,14.06251,75,14.06251C72.411239,14.06251,70.31249,16.16043,70.31249,18.75001C70.31249,21.33959,72.411239,23.43751,75,23.43751" stroke-width="2" stroke-linecap="round" stroke-miterlimit="6" transform="matrix(0,-1,-1,0,2975,1950)"/>
    <path style="stroke-linecap: round; stroke-miterlimit: 6;" fill="none" stroke="#000000" d="M75,14.06251L75,6.25" stroke-width="2" stroke-linecap="round" stroke-miterlimit="6" transform="matrix(0,-1,-1,0,2975,1950)"/>
    <path fill="#000000" stroke="none" d="M78.749988,66.25002C74.062488,63.90622,72.656239,63.90622,65.62499,62.50002C72.656239,61.09372,74.062488,61.09372,78.749988,58.75002C77.812488,61.56252,77.812488,63.43752,78.749988,66.25002" transform="matrix(0,-1,-1,0,2975,1950)"/>
    <path style="stroke-linecap: round; stroke-miterlimit: 6;" fill="none" stroke="#000000" d="M75,76.56252C77.588739,76.56252,79.687488,78.66042,79.687488,81.25012C79.687488,83.83952,77.588739,85.93752,75,85.93752C72.411239,85.93752,70.31249,83.83952,70.31249,81.25012C70.31249,78.66042,72.411239,76.56252,75,76.56252" stroke-width="2" stroke-linecap="round" stroke-miterlimit="6" transform="matrix(0,-1,-1,0,2975,1950)"/>
    <path style="stroke-linecap: round; stroke-miterlimit: 6;" fill="none" stroke="#000000" d="M75,85.93752L75,93.75" stroke-width="2" stroke-linecap="round" stroke-miterlimit="6" transform="matrix(0,-1,-1,0,2975,1950)"/>
    <path style="stroke-linecap: round; stroke-miterlimit: 6;" fill="none" stroke="#000000" d="M75,0L75,6.25" stroke-width="2" stroke-linecap="round" stroke-miterlimit="6" transform="matrix(0,-1,-1,0,2975,1950)"/>
    <path style="stroke-linecap: round; stroke-miterlimit: 6;" fill="none" stroke="#000000" d="M75,100L75,93.75" stroke-width="2" stroke-linecap="round" stroke-miterlimit="6" transform="matrix(0,-1,-1,0,2975,1950)"/>
    <path style="stroke-linecap: round; stroke-miterlimit: 6;" fill="none" stroke="#000000" d="M126.56248,22.65626L150,81.25012" stroke-width="3" stroke-linecap="round" stroke-miterlimit="6" transform="matrix(0,-1,-1,0,2975,1950)"/>
    <path style="stroke-linecap: round; stroke-miterlimit: 6;" fill="none" stroke="#000000" d="M154.2154,52.35832C146.11248,59.40212,135.73644,63.28122,125,63.28122" stroke-width="1" stroke-linecap="round" stroke-miterlimit="6" transform="matrix(0,-1,-1,0,2975,1950)"/>
    <path style="stroke-linecap: round; stroke-miterlimit: 6;" fill="none" stroke="#000000" d="M125,23.43751C127.58873,23.43751,129.68748,21.33959,129.68748,18.75001C129.68748,16.16043,127.58873,14.06251,125,14.06251C122.41124,14.06251,120.31249,16.16043,120.31249,18.75001C120.31249,21.33959,122.41124,23.43751,125,23.43751" stroke-width="2" stroke-linecap="round" stroke-miterlimit="6" transform="matrix(0,-1,-1,0,2975,1950)"/>
    <path style="stroke-linecap: round; stroke-miterlimit: 6;" fill="none" stroke="#000000" d="M125,14.06251L125,6.25" stroke-width="2" stroke-linecap="round" stroke-miterlimit="6" transform="matrix(0,-1,-1,0,2975,1950)"/>
    <path fill="#000000" stroke="none" d="M128.74998,66.25002C124.06248,63.90622,122.65623,63.90622,115.62499,62.50002C122.65623,61.09372,124.06248,61.09372,128.74998,58.75002C127.81248,61.56252,127.81248,63.43752,128.74998,66.25002" transform="matrix(0,-1,-1,0,2975,1950)"/>
    <path style="stroke-linecap: round; stroke-miterlimit: 6;" fill="none" stroke="#000000" d="M125,76.56252C127.58873,76.56252,129.68748,78.66042,129.68748,81.25012C129.68748,83.83952,127.58873,85.93752,125,85.93752C122.41124,85.93752,120.31249,83.83952,120.31249,81.25012C120.31249,78.66042,122.41124,76.56252,125,76.56252" stroke-width="2" stroke-linecap="round" stroke-miterlimit="6" transform="matrix(0,-1,-1,0,2975,1950)"/>
    <path style="stroke-linecap: round; stroke-miterlimit: 6;" fill="none" stroke="#000000" d="M125,85.93752L125,93.75" stroke-width="2" stroke-linecap="round" stroke-miterlimit="6" transform="matrix(0,-1,-1,0,2975,1950)"/>
    <path style="stroke-linecap: round; stroke-miterlimit: 6;" fill="none" stroke="#000000" d="M125,0L125,6.25" stroke-width="2" stroke-linecap="round" stroke-miterlimit="6" transform="matrix(0,-1,-1,0,2975,1950)"/>
    <path style="stroke-linecap: round; stroke-miterlimit: 6;" fill="none" stroke="#000000" d="M125,100L125,93.75" stroke-width="2" stroke-linecap="round" stroke-miterlimit="6" transform="matrix(0,-1,-1,0,2975,1950)"/>
    <path style="stroke-linecap: round; stroke-miterlimit: 6;" fill="none" stroke="#000000" d="M49.499887,50L40.5,50" stroke-width="1" stroke-linecap="round" stroke-miterlimit="6" transform="matrix(0,-1,-1,0,2975,1950)"/>
    <path style="stroke-linecap: round; stroke-miterlimit: 6;" fill="none" stroke="#000000" d="M64.499887,50L55.5,50" stroke-width="1" stroke-linecap="round" stroke-miterlimit="6" transform="matrix(0,-1,-1,0,2975,1950)"/>
    <path style="stroke-linecap: round; stroke-miterlimit: 6;" fill="none" stroke="#000000" d="M79.499887,50L70.5,50" stroke-width="1" stroke-linecap="round" stroke-miterlimit="6" transform="matrix(0,-1,-1,0,2975,1950)"/>
    <path style="stroke-linecap: round; stroke-miterlimit: 6;" fill="none" stroke="#000000" d="M94.499887,50L85.5,50" stroke-width="1" stroke-linecap="round" stroke-miterlimit="6" transform="matrix(0,-1,-1,0,2975,1950)"/>
    <path style="stroke-linecap: round; stroke-miterlimit: 6;" fill="none" stroke="#000000" d="M109.49989,50L100.5,50" stroke-width="1" stroke-linecap="round" stroke-miterlimit="6" transform="matrix(0,-1,-1,0,2975,1950)"/>
    <path style="stroke-linecap: round; stroke-miterlimit: 6;" fill="none" stroke="#000000" d="M124.49989,50L115.5,50" stroke-width="1" stroke-linecap="round" stroke-miterlimit="6" transform="matrix(0,-1,-1,0,2975,1950)"/>
    <text style="font-family: Arial; font-size: 16px; font-weight: bold; text-anchor: middle;" x="0" y="0" text-anchor="middle" stroke="none" fill="#000000" transform="translate(2925,1965.85)">
      <tspan dy="7.2">RLY3</tspan>
    </text>
    <path style="stroke-linecap: round;" fill="none" stroke="#000000" d="M 2975 1875 L 3275 1875" stroke-width="2" stroke-linecap="round" class="cl_wire"/>
    <path style="stroke-linecap: round;" fill="none" stroke="#000000" d="M 3275 1875 L 3275 1900" stroke-width="2" stroke-linecap="round" class="cl_wire"/>
    <path style="stroke-linecap: round;" fill="none" stroke="#000000" d="M 2850 1825 L 2875 1825" stroke-width="2" stroke-linecap="round" class="cl_wire"/>
    <path style="stroke-linecap: round;" fill="none" stroke="#000000" d="M 2850 1825 L 2850 1875" stroke-width="2" stroke-linecap="round" class="cl_wire"/>
    <path style="stroke-linecap: round;" fill="none" stroke="#000000" d="M 2975 1825 L 3025 1825" stroke-width="2" stroke-linecap="round" class="cl_wire"/>
    <path style="stroke-linecap: round;" fill="none" stroke="#000000" d="M 3025 1750 L 3025 1825" stroke-width="2" stroke-linecap="round" class="cl_wire"/>
    <path style="stroke-linecap: round; stroke-miterlimit: 6;" fill="#ffffff" stroke="#000000" d="M6.25,93.75L162.5,93.75L162.5,6.25L6.25,6.25L6.25,93.75Z" stroke-width="2" stroke-linecap="round" stroke-miterlimit="6" transform="matrix(0,-1,1,0,3125,2150)"/>
    <path style="stroke-linecap: round; stroke-miterlimit: 6;" fill="none" stroke="#000000" d="M25,64.06252C40.624995,67.18752,40.624995,79.68752,25,82.81252" stroke-width="2" stroke-linecap="round" stroke-miterlimit="6" transform="matrix(0,-1,1,0,3125,2150)"/>
    <path style="stroke-linecap: round; stroke-miterlimit: 6;" fill="none" stroke="#000000" d="M25,64.06252C9.3749995,60.93752,9.3749995,70.31252,25,67.18752" stroke-width="2" stroke-linecap="round" stroke-miterlimit="6" transform="matrix(0,-1,1,0,3125,2150)"/>
    <path style="stroke-linecap: round; stroke-miterlimit: 6;" fill="none" stroke="#000000" d="M25,17.18752C40.624995,20.31252,40.624995,32.81252,25,35.93752" stroke-width="2" stroke-linecap="round" stroke-miterlimit="6" transform="matrix(0,-1,1,0,3125,2150)"/>
    <path style="stroke-linecap: round; stroke-miterlimit: 6;" fill="none" stroke="#000000" d="M25,32.81252C40.624995,35.93752,40.624995,48.43752,25,51.56252" stroke-width="2" stroke-linecap="round" stroke-miterlimit="6" transform="matrix(0,-1,1,0,3125,2150)"/>
    <path style="stroke-linecap: round; stroke-miterlimit: 6;" fill="none" stroke="#000000" d="M25,48.43752C40.624995,51.56252,40.624995,64.06252,25,67.18752" stroke-width="2" stroke-linecap="round" stroke-miterlimit="6" transform="matrix(0,-1,1,0,3125,2150)"/>
    <path style="stroke-linecap: round; stroke-miterlimit: 6;" fill="none" stroke="#000000" d="M25,32.81252C9.3749995,29.68752,9.3749995,39.06252,25,35.93752" stroke-width="2" stroke-linecap="round" stroke-miterlimit="6" transform="matrix(0,-1,1,0,3125,2150)"/>
    <path style="stroke-linecap: round; stroke-miterlimit: 6;" fill="none" stroke="#000000" d="M25,48.43752C9.3749995,45.31252,9.3749995,54.68752,25,51.56252" stroke-width="2" stroke-linecap="round" stroke-miterlimit="6" transform="matrix(0,-1,1,0,3125,2150)"/>
    <path style="stroke-linecap: round; stroke-miterlimit: 6;" fill="none" stroke="#000000" d="M25,100L25,82.81252" stroke-width="2" stroke-linecap="round" stroke-miterlimit="6" transform="matrix(0,-1,1,0,3125,2150)"/>
    <path style="stroke-linecap: round; stroke-miterlimit: 6;" fill="none" stroke="#000000" d="M25,0L25,17.18752" stroke-width="2" stroke-linecap="round" stroke-miterlimit="6" transform="matrix(0,-1,1,0,3125,2150)"/>
    <path style="stroke-linecap: round; stroke-miterlimit: 6;" fill="none" stroke="#000000" d="M76.562489,22.65619L93.5,81.25" stroke-width="3" stroke-linecap="round" stroke-miterlimit="6" transform="matrix(0,-1,1,0,3125,2150)"/>
    <path style="stroke-linecap: round; stroke-miterlimit: 6;" fill="none" stroke="#000000" d="M104.2154,52.35842C96.112486,59.40182,85.736437,63.28122,75,63.28122" stroke-width="1" stroke-linecap="round" stroke-miterlimit="6" transform="matrix(0,-1,1,0,3125,2150)"/>
    <path style="stroke-linecap: round; stroke-miterlimit: 6;" fill="none" stroke="#000000" d="M75,23.43752C77.588739,23.43752,79.687488,21.33869,79.687488,18.75002C79.687488,16.16119,77.588739,14.06251,75,14.06251C72.41124,14.06251,70.31249,16.16119,70.31249,18.75002C70.31249,21.33869,72.41124,23.43752,75,23.43752" stroke-width="2" stroke-linecap="round" stroke-miterlimit="6" transform="matrix(0,-1,1,0,3125,2150)"/>
    <path style="stroke-linecap: round; stroke-miterlimit: 6;" fill="none" stroke="#000000" d="M75,14.06251L75,6.25" stroke-width="2" stroke-linecap="round" stroke-miterlimit="6" transform="matrix(0,-1,1,0,3125,2150)"/>
    <path fill="#000000" stroke="none" d="M78.749988,66.25002C74.062489,63.90622,72.656239,63.90622,65.62499,62.50002C72.656239,61.09372,74.062489,61.09372,78.749988,58.75002C77.812488,61.56252,77.812488,63.43752,78.749988,66.25002" transform="matrix(0,-1,1,0,3125,2150)"/>
    <path style="stroke-linecap: round; stroke-miterlimit: 6;" fill="none" stroke="#000000" d="M75,76.56252C77.588739,76.56252,79.687488,78.66122,79.687488,81.25C79.687488,83.83872,77.588739,85.93752,75,85.93752C72.41124,85.93752,70.31249,83.83872,70.31249,81.25C70.31249,78.66122,72.41124,76.56252,75,76.56252" stroke-width="2" stroke-linecap="round" stroke-miterlimit="6" transform="matrix(0,-1,1,0,3125,2150)"/>
    <path style="stroke-linecap: round; stroke-miterlimit: 6;" fill="none" stroke="#000000" d="M75,85.93752L75,93.75" stroke-width="2" stroke-linecap="round" stroke-miterlimit="6" transform="matrix(0,-1,1,0,3125,2150)"/>
    <path style="stroke-linecap: round; stroke-miterlimit: 6;" fill="none" stroke="#000000" d="M75,0L75,6.25" stroke-width="2" stroke-linecap="round" stroke-miterlimit="6" transform="matrix(0,-1,1,0,3125,2150)"/>
    <path style="stroke-linecap: round; stroke-miterlimit: 6;" fill="none" stroke="#000000" d="M75,100L75,93.75" stroke-width="2" stroke-linecap="round" stroke-miterlimit="6" transform="matrix(0,-1,1,0,3125,2150)"/>
    <path style="stroke-linecap: round; stroke-miterlimit: 6;" fill="none" stroke="#000000" d="M100,76.56252C97.411236,76.56252,95.312486,78.66122,95.312486,81.25C95.312486,83.83872,97.411236,85.93752,100,85.93752C102.58874,85.93752,104.68748,83.83872,104.68748,81.25C104.68748,78.66122,102.58874,76.56252,100,76.56252" stroke-width="2" stroke-linecap="round" stroke-miterlimit="6" transform="matrix(0,-1,1,0,3125,2150)"/>
    <path style="stroke-linecap: round; stroke-miterlimit: 6;" fill="none" stroke="#000000" d="M100,85.93752L100,93.75" stroke-width="2" stroke-linecap="round" stroke-miterlimit="6" transform="matrix(0,-1,1,0,3125,2150)"/>
    <path style="stroke-linecap: round; stroke-miterlimit: 6;" fill="none" stroke="#000000" d="M100,100L100,93.75" stroke-width="2" stroke-linecap="round" stroke-miterlimit="6" transform="matrix(0,-1,1,0,3125,2150)"/>
    <path style="stroke-linecap: round; stroke-miterlimit: 6;" fill="none" stroke="#000000" d="M126.56248,22.65619L143.5,81.25" stroke-width="3" stroke-linecap="round" stroke-miterlimit="6" transform="matrix(0,-1,1,0,3125,2150)"/>
    <path style="stroke-linecap: round; stroke-miterlimit: 6;" fill="none" stroke="#000000" d="M154.21539,52.35842C146.11248,59.40182,135.73643,63.28122,125,63.28122" stroke-width="1" stroke-linecap="round" stroke-miterlimit="6" transform="matrix(0,-1,1,0,3125,2150)"/>
    <path style="stroke-linecap: round; stroke-miterlimit: 6;" fill="none" stroke="#000000" d="M125,23.43752C127.58873,23.43752,129.68748,21.33869,129.68748,18.75002C129.68748,16.16119,127.58873,14.06251,125,14.06251C122.41123,14.06251,120.31248,16.16119,120.31248,18.75002C120.31248,21.33869,122.41123,23.43752,125,23.43752" stroke-width="2" stroke-linecap="round" stroke-miterlimit="6" transform="matrix(0,-1,1,0,3125,2150)"/>
    <path style="stroke-linecap: round; stroke-miterlimit: 6;" fill="none" stroke="#000000" d="M125,14.06251L125,6.25" stroke-width="2" stroke-linecap="round" stroke-miterlimit="6" transform="matrix(0,-1,1,0,3125,2150)"/>
    <path fill="#000000" stroke="none" d="M128.74998,66.25002C124.06248,63.90622,122.65623,63.90622,115.62498,62.50002C122.65623,61.09372,124.06248,61.09372,128.74998,58.75002C127.81248,61.56252,127.81248,63.43752,128.74998,66.25002" transform="matrix(0,-1,1,0,3125,2150)"/>
    <path style="stroke-linecap: round; stroke-miterlimit: 6;" fill="none" stroke="#000000" d="M125,76.56252C127.58873,76.56252,129.68748,78.66122,129.68748,81.25C129.68748,83.83872,127.58873,85.93752,125,85.93752C122.41123,85.93752,120.31248,83.83872,120.31248,81.25C120.31248,78.66122,122.41123,76.56252,125,76.56252" stroke-width="2" stroke-linecap="round" stroke-miterlimit="6" transform="matrix(0,-1,1,0,3125,2150)"/>
    <path style="stroke-linecap: round; stroke-miterlimit: 6;" fill="none" stroke="#000000" d="M125,85.93752L125,93.75" stroke-width="2" stroke-linecap="round" stroke-miterlimit="6" transform="matrix(0,-1,1,0,3125,2150)"/>
    <path style="stroke-linecap: round; stroke-miterlimit: 6;" fill="none" stroke="#000000" d="M125,0L125,6.25" stroke-width="2" stroke-linecap="round" stroke-miterlimit="6" transform="matrix(0,-1,1,0,3125,2150)"/>
    <path style="stroke-linecap: round; stroke-miterlimit: 6;" fill="none" stroke="#000000" d="M125,100L125,93.75" stroke-width="2" stroke-linecap="round" stroke-miterlimit="6" transform="matrix(0,-1,1,0,3125,2150)"/>
    <path style="stroke-linecap: round; stroke-miterlimit: 6;" fill="none" stroke="#000000" d="M150,76.56252C147.41123,76.56252,145.31248,78.66122,145.31248,81.25C145.31248,83.83872,147.41123,85.93752,150,85.93752C152.58873,85.93752,154.68748,83.83872,154.68748,81.25C154.68748,78.66122,152.58873,76.56252,150,76.56252" stroke-width="2" stroke-linecap="round" stroke-miterlimit="6" transform="matrix(0,-1,1,0,3125,2150)"/>
    <path style="stroke-linecap: round; stroke-miterlimit: 6;" fill="none" stroke="#000000" d="M150,85.93752L150,93.75" stroke-width="2" stroke-linecap="round" stroke-miterlimit="6" transform="matrix(0,-1,1,0,3125,2150)"/>
    <path style="stroke-linecap: round; stroke-miterlimit: 6;" fill="none" stroke="#000000" d="M150,100L150,93.75" stroke-width="2" stroke-linecap="round" stroke-miterlimit="6" transform="matrix(0,-1,1,0,3125,2150)"/>
    <path style="stroke-linecap: round; stroke-miterlimit: 6;" fill="none" stroke="#000000" d="M49.499887,50L40.5,50" stroke-width="1" stroke-linecap="round" stroke-miterlimit="6" transform="matrix(0,-1,1,0,3125,2150)"/>
    <path style="stroke-linecap: round; stroke-miterlimit: 6;" fill="none" stroke="#000000" d="M64.499887,50L55.5,50" stroke-width="1" stroke-linecap="round" stroke-miterlimit="6" transform="matrix(0,-1,1,0,3125,2150)"/>
    <path style="stroke-linecap: round; stroke-miterlimit: 6;" fill="none" stroke="#000000" d="M79.499887,50L70.5,50" stroke-width="1" stroke-linecap="round" stroke-miterlimit="6" transform="matrix(0,-1,1,0,3125,2150)"/>
    <path style="stroke-linecap: round; stroke-miterlimit: 6;" fill="none" stroke="#000000" d="M94.499887,50L85.5,50" stroke-width="1" stroke-linecap="round" stroke-miterlimit="6" transform="matrix(0,-1,1,0,3125,2150)"/>
    <path style="stroke-linecap: round; stroke-miterlimit: 6;" fill="none" stroke="#000000" d="M109.49989,50L100.5,50" stroke-width="1" stroke-linecap="round" stroke-miterlimit="6" transform="matrix(0,-1,1,0,3125,2150)"/>
    <path style="stroke-linecap: round; stroke-miterlimit: 6;" fill="none" stroke="#000000" d="M124.49989,50L115.5,50" stroke-width="1" stroke-linecap="round" stroke-miterlimit="6" transform="matrix(0,-1,1,0,3125,2150)"/>
    <text style="font-family: Arial; font-size: 16px; font-weight: bold; text-anchor: middle;" x="0" y="0" text-anchor="middle" stroke="none" fill="#000000" transform="translate(3175,2165.85)">
      <tspan dy="7.2">RLY4</tspan>
    </text>
    <path style="stroke-linecap: round;" fill="none" stroke="#000000" d="M 3225 2000 L 3275 2000" stroke-width="2" stroke-linecap="round" class="cl_wire"/>
    <path style="stroke-linecap: round;" fill="none" stroke="#000000" d="M 3625 2025 L 3625 2050" stroke-width="2" stroke-linecap="round" class="cl_wire"/>
    <path style="stroke-linecap: round;" fill="none" stroke="#000000" d="M 3075 2075 L 3125 2075" stroke-width="2" stroke-linecap="round" class="cl_wire"/>
    <path style="stroke-linecap: round;" fill="none" stroke="#000000" d="M 3075 2075 L 3075 2125" stroke-width="2" stroke-linecap="round" class="cl_wire"/>
    <path style="stroke-linecap: round;" fill="none" stroke="#000000" d="M 3075 2125 L 3125 2125" stroke-width="2" stroke-linecap="round" class="cl_wire"/>
    <path style="stroke-linecap: round;" fill="none" stroke="#000000" d="M 3025 2025 L 3125 2025" stroke-width="2" stroke-linecap="round" class="cl_wire"/>
    <path style="stroke-linecap: round;" fill="none" stroke="#000000" d="M 3225 2025 L 3300 2025" stroke-width="2" stroke-linecap="round" class="cl_wire"/>
    <path style="stroke-linecap: round;" fill="none" stroke="#000000" d="M 3300 2025 L 3300 2050" stroke-width="2" stroke-linecap="round" class="cl_wire"/>
    <path style="stroke-linecap: round;" fill="none" stroke="#000000" d="M 3225 2075 L 3400 2075" stroke-width="2" stroke-linecap="round" class="cl_wire"/>
    <path style="stroke-linecap: round;" fill="none" stroke="#000000" d="M 3400 1750 L 3400 2043 A 7 7 0 1 1 3400 2057 L 3400 2075" stroke-width="2" stroke-linecap="round" class="cl_wire"/>
    <path style="stroke-linecap: round;" fill="none" stroke="#000000" d="M 3225 2125 L 3300 2125" stroke-width="2" stroke-linecap="round" class="cl_wire"/>
    <path style="stroke-linecap: round;" fill="none" stroke="#000000" d="M 3300 2125 L 3300 2200" stroke-width="2" stroke-linecap="round" class="cl_wire"/>
    <path style="stroke-linecap: round;" fill="none" stroke="#000000" d="M 3025 2200 L 3300 2200" stroke-width="2" stroke-linecap="round" class="cl_wire"/>
    <path style="stroke-linecap: round;" fill="none" stroke="#000000" d="M 3025 2125 L 3025 2200" stroke-width="2" stroke-linecap="round" class="cl_wire"/>
    <path style="stroke-linecap: round; stroke-miterlimit: 6;" fill="none" stroke="#000000" d="M23.437499,25C23.437499,22.4106,21.338749,20.3128,18.749999,20.3128C16.161249,20.3128,14.062499,22.4106,14.062499,25C14.062499,27.5899,16.161249,29.688,18.749999,29.688C21.338749,29.688,23.437499,27.5899,23.437499,25" stroke-width="2" stroke-linecap="round" stroke-miterlimit="6" transform="translate(2700,1900)"/>
    <path style="stroke-linecap: round; stroke-miterlimit: 6;" fill="none" stroke="#000000" d="M14.062499,25L6.25,25" stroke-width="2" stroke-linecap="round" stroke-miterlimit="6" transform="translate(2700,1900)"/>
    <path style="stroke-linecap: round; stroke-miterlimit: 6;" fill="none" stroke="#000000" d="M51.562498,25C51.562498,27.5899,53.661248,29.688,56.249998,29.688C58.838749,29.688,60.937499,27.5899,60.937499,25C60.937499,22.4106,58.838749,20.3128,56.249998,20.3128C53.661248,20.3128,51.562498,22.4106,51.562498,25" stroke-width="2" stroke-linecap="round" stroke-miterlimit="6" transform="translate(2700,1900)"/>
    <path style="stroke-linecap: round; stroke-miterlimit: 6;" fill="none" stroke="#000000" d="M60.937499,25L68.75,25" stroke-width="2" stroke-linecap="round" stroke-miterlimit="6" transform="translate(2700,1900)"/>
    <path style="stroke-linecap: round; stroke-miterlimit: 6;" fill="none" stroke="#000000" d="M75,25L68.75,25" stroke-width="2" stroke-linecap="round" stroke-miterlimit="6" transform="translate(2700,1900)"/>
    <path style="stroke-linecap: round; stroke-miterlimit: 6;" fill="none" stroke="#000000" d="M62.5,12.1421L12.5,12.1421" stroke-width="3" stroke-linecap="round" stroke-miterlimit="6" transform="translate(2700,1900)"/>
    <path style="stroke-linecap: round; stroke-miterlimit: 6;" fill="none" stroke="#000000" d="M37.5,-0.3581L37.5,12.1421" stroke-width="2" stroke-linecap="round" stroke-miterlimit="6" transform="translate(2700,1900)"/>
    <path style="stroke-linecap: round; stroke-miterlimit: 6;" fill="none" stroke="#000000" d="M0,25L6.25,25" stroke-width="2" stroke-linecap="round" stroke-miterlimit="6" transform="translate(2700,1900)"/>
    <path style="stroke-linecap: round; stroke-miterlimit: 6;" fill="none" stroke="#000000" d="M43.749998,-0.3581L31.249999,-0.3581" stroke-width="2" stroke-linecap="round" stroke-miterlimit="6" transform="translate(2700,1900)"/>
    <text style="font-family: Arial; font-size: 16px; font-weight: bold; text-anchor: middle;" x="0" y="0" text-anchor="middle" stroke="none" fill="#000000" transform="translate(2737.5,1953.35)">
      <tspan dy="7.2">inputSwitch</tspan>
    </text>
    <path style="stroke-linecap: round; stroke-miterlimit: 6;" fill="none" stroke="#000000" d="M23.437499,25C23.437499,22.4106,21.338749,20.3128,18.749999,20.3128C16.161249,20.3128,14.062499,22.4106,14.062499,25C14.062499,27.5899,16.161249,29.688,18.749999,29.688C21.338749,29.688,23.437499,27.5899,23.437499,25" stroke-width="2" stroke-linecap="round" stroke-miterlimit="6" transform="translate(3500,1725)"/>
    <path style="stroke-linecap: round; stroke-miterlimit: 6;" fill="none" stroke="#000000" d="M14.062499,25L6.25,25" stroke-width="2" stroke-linecap="round" stroke-miterlimit="6" transform="translate(3500,1725)"/>
    <path style="stroke-linecap: round; stroke-miterlimit: 6;" fill="none" stroke="#000000" d="M51.562498,25C51.562498,27.5899,53.661248,29.688,56.249998,29.688C58.838749,29.688,60.937499,27.5899,60.937499,25C60.937499,22.4106,58.838749,20.3128,56.249998,20.3128C53.661248,20.3128,51.562498,22.4106,51.562498,25" stroke-width="2" stroke-linecap="round" stroke-miterlimit="6" transform="translate(3500,1725)"/>
    <path style="stroke-linecap: round; stroke-miterlimit: 6;" fill="none" stroke="#000000" d="M60.937499,25L68.75,25" stroke-width="2" stroke-linecap="round" stroke-miterlimit="6" transform="translate(3500,1725)"/>
    <path style="stroke-linecap: round; stroke-miterlimit: 6;" fill="none" stroke="#000000" d="M75,25L68.75,25" stroke-width="2" stroke-linecap="round" stroke-miterlimit="6" transform="translate(3500,1725)"/>
    <path style="stroke-linecap: round; stroke-miterlimit: 6;" fill="none" stroke="#000000" d="M62.5,12.1421L12.5,12.1421" stroke-width="3" stroke-linecap="round" stroke-miterlimit="6" transform="translate(3500,1725)"/>
    <path style="stroke-linecap: round; stroke-miterlimit: 6;" fill="none" stroke="#000000" d="M37.5,-0.3581L37.5,12.1421" stroke-width="2" stroke-linecap="round" stroke-miterlimit="6" transform="translate(3500,1725)"/>
    <path style="stroke-linecap: round; stroke-miterlimit: 6;" fill="none" stroke="#000000" d="M0,25L6.25,25" stroke-width="2" stroke-linecap="round" stroke-miterlimit="6" transform="translate(3500,1725)"/>
    <path style="stroke-linecap: round; stroke-miterlimit: 6;" fill="none" stroke="#000000" d="M43.749998,-0.3581L31.249999,-0.3581" stroke-width="2" stroke-linecap="round" stroke-miterlimit="6" transform="translate(3500,1725)"/>
    <text style="font-family: Arial; font-size: 16px; font-weight: bold; text-anchor: middle;" x="0" y="0" text-anchor="middle" stroke="none" fill="#000000" transform="translate(3537.5,1778.35)">
      <tspan dy="7.2">pogoPinPos</tspan>
    </text>
    <path style="stroke-linecap: round; stroke-miterlimit: 6;" fill="none" stroke="#000000" d="M23.437499,25C23.437499,22.4106,21.338749,20.3128,18.749999,20.3128C16.161249,20.3128,14.062499,22.4106,14.062499,25C14.062499,27.5899,16.161249,29.688,18.749999,29.688C21.338749,29.688,23.437499,27.5899,23.437499,25" stroke-width="2" stroke-linecap="round" stroke-miterlimit="6" transform="translate(3500,2025)"/>
    <path style="stroke-linecap: round; stroke-miterlimit: 6;" fill="none" stroke="#000000" d="M14.062499,25L6.25,25" stroke-width="2" stroke-linecap="round" stroke-miterlimit="6" transform="translate(3500,2025)"/>
    <path style="stroke-linecap: round; stroke-miterlimit: 6;" fill="none" stroke="#000000" d="M51.562498,25C51.562498,27.5899,53.661248,29.688,56.249998,29.688C58.838749,29.688,60.937499,27.5899,60.937499,25C60.937499,22.4106,58.838749,20.3128,56.249998,20.3128C53.661248,20.3128,51.562498,22.4106,51.562498,25" stroke-width="2" stroke-linecap="round" stroke-miterlimit="6" transform="translate(3500,2025)"/>
    <path style="stroke-linecap: round; stroke-miterlimit: 6;" fill="none" stroke="#000000" d="M60.937499,25L68.75,25" stroke-width="2" stroke-linecap="round" stroke-miterlimit="6" transform="translate(3500,2025)"/>
    <path style="stroke-linecap: round; stroke-miterlimit: 6;" fill="none" stroke="#000000" d="M75,25L68.75,25" stroke-width="2" stroke-linecap="round" stroke-miterlimit="6" transform="translate(3500,2025)"/>
    <path style="stroke-linecap: round; stroke-miterlimit: 6;" fill="none" stroke="#000000" d="M62.5,12.1421L12.5,12.1421" stroke-width="3" stroke-linecap="round" stroke-miterlimit="6" transform="translate(3500,2025)"/>
    <path style="stroke-linecap: round; stroke-miterlimit: 6;" fill="none" stroke="#000000" d="M37.5,-0.3581L37.5,12.1421" stroke-width="2" stroke-linecap="round" stroke-miterlimit="6" transform="translate(3500,2025)"/>
    <path style="stroke-linecap: round; stroke-miterlimit: 6;" fill="none" stroke="#000000" d="M0,25L6.25,25" stroke-width="2" stroke-linecap="round" stroke-miterlimit="6" transform="translate(3500,2025)"/>
    <path style="stroke-linecap: round; stroke-miterlimit: 6;" fill="none" stroke="#000000" d="M43.749998,-0.3581L31.249999,-0.3581" stroke-width="2" stroke-linecap="round" stroke-miterlimit="6" transform="translate(3500,2025)"/>
    <text style="font-family: Arial; font-size: 16px; font-weight: bold; text-anchor: middle;" x="0" y="0" text-anchor="middle" stroke="none" fill="#000000" transform="translate(3537.5,2078.35)">
      <tspan dy="7.2">pogoPinNeg</tspan>
    </text>
    <path style="stroke-linecap: round;" fill="none" stroke="#000000" d="M 3225 2050 L 3500 2050" stroke-width="2" stroke-linecap="round" class="cl_wire"/>
    <path style="stroke-linecap: round;" fill="none" stroke="#000000" d="M 3575 2050 L 3625 2050" stroke-width="2" stroke-linecap="round" class="cl_wire"/>
    <circle cx="2375" cy="2125" r="3" fill="#000000" stroke="#000000"/>
    <circle cx="2550" cy="2125" r="3" fill="#000000" stroke="#000000"/>
    <circle cx="3025" cy="2125" r="3" fill="#000000" stroke="#000000"/>
    <circle cx="2825" cy="1925" r="3" fill="#000000" stroke="#000000"/>
    <circle cx="2625" cy="1925" r="3" fill="#000000" stroke="#000000"/>
    <circle cx="2850" cy="1875" r="3" fill="#000000" stroke="#000000"/>
    <circle cx="3025" cy="1750" r="3" fill="#000000" stroke="#000000"/>
    <circle cx="3025" cy="2025" r="3" fill="#000000" stroke="#000000"/>
    <circle cx="3300" cy="2050" r="3" fill="#000000" stroke="#000000"/>
    <circle cx="3400" cy="1750" r="3" fill="#000000" stroke="#000000"/>
  </g>
</svg>